:SAMPLES-PER-SECOND 30
:FULLY-SPECIFIED
:DEGREES
103
root  24.32244519 39.11622115 45.84666575 -4.320099831 7.232970238 2.549949884
lowerback  9.936989784 -1.563930035 -5.987370014
upperback  0.9921780229 -2.62093997 2.435270071
thorax  -4.150839806 -1.18114996 6.287700176
lowerneck  -16.9708004 -5.211699963 -15.61800003
upperneck  27.92650032 -5.762869835 9.883700371
head  12.92640018 -2.971529961 5.590250015
lclavicle  0 -5.34481991e-014 2.981770104e-014
lhumerus  -34.32709885 7.30892992 78.7798996
lradius  -2.483437267e-031 -2.51025564e-031 45.30770111
lwrist  0 -0 6.155280113
lhand  -7.178004001e-031 -10.30360031 30.27930069
lfingers  90 7.125020027 -90
lthumb  94.04785768 14.10509997 73.807711
rclavicle  0 -5.34481991e-014 2.981770104e-014
rhumerus  -41.67100143 -20.44759941 -69.56510162
rradius  3.320933126e-031 1.200102999e-031 19.86860085
rwrist  7.062250077e-031 -0 15.69719982
rhand  -0 -19.23520088 11.10620022
rfingers  -90 -7.125020027 -90
rthumb  -86.52344935 -26.0294198 -82.11809119
rfemur  -23.29509926 -1.235739946 17.02820015
rtibia  -0 0 27.31200027
rfoot  -0 -5.241030216 -9.479280472
rtoes  2.778277554 19.81391938 -98.1473868
lfemur  18.87490082 -3.455499887 -23.53520012
ltibia  -0 0 20.37770081
lfoot  4.500748964e-032 -11.27359962 -6.289460182
ltoes  -6.728268787 -18.87808288 -110.0326199
104
root  24.2868889 39.12355618 46.26644465 -4.444220066 7.111189842 2.174129963
lowerback  9.79434967 -1.606549978 -5.699230194
upperback  1.100329995 -2.630990028 2.572119951
thorax  -3.962389946 -1.200719953 6.259049892
lowerneck  -17.03420067 -5.174399853 -15.53730011
upperneck  27.83069992 -5.67993021 9.764160156
head  12.88000011 -2.937129974 5.536560059
lclavicle  0 -5.34481991e-014 2.981770104e-014
lhumerus  -34.60810089 7.610569954 78.7492981
lradius  -2.479451593e-031 -2.514192482e-031 45.39860153
lwrist  -7.062250077e-031 -0 6.081250191
lhand  -7.185548129e-031 -10.62940025 30.64609909
lfingers  90 7.125020027 -90
lthumb  94.07960217 14.50330525 74.10327321
rclavicle  0 -5.34481991e-014 2.981770104e-014
rhumerus  -41.63019943 -20.62339973 -69.45939636
rradius  3.323347706e-031 1.193400211e-031 19.75300026
rwrist  7.062250077e-031 -7.062250077e-031 15.91030025
rhand  -0 -19.33209991 10.66530037
rfingers  -90 -7.125020027 -90
rthumb  -86.63567492 -25.59522562 -82.25103319
rfemur  -22.8845005 -1.464470029 17.59560013
rtibia  -0 0 27.67880058
rfoot  -0 -4.733809948 -8.399279594
rtoes  3.075483514 19.77169525 -99.02506965
lfemur  18.64789963 -3.812520027 -23.17239952
ltibia  -0 0 22.02820015
lfoot  8.967587043e-032 -10.12930012 -6.384749889
ltoes  -6.919465327 -18.81104544 -110.6245514
105
root  24.24888911 39.13422232 46.68311172 -4.569300175 6.798820019 1.770089984
lowerback  9.61991024 -1.586079955 -5.332149982
upperback  1.298220038 -2.548690081 2.69430995
thorax  -3.680089951 -1.180809975 6.154300213
lowerneck  -17.70350075 -5.218200207 -15.4197998
upperneck  28.0428009 -5.647409916 9.65721035
head  13.09549999 -2.913589954 5.485660076
lclavicle  0 -5.34481991e-014 2.981770104e-014
lhumerus  -34.82479858 7.800059795 78.78869629
lradius  -2.460411613e-031 -2.532828208e-031 45.83089828
lwrist  -1.412450015e-030 -0 6.164010048
lhand  -7.177685376e-031 -10.28960037 31.76250076
lfingers  90 7.125020027 -90
lthumb  94.48048318 15.5269688 73.68415282
rclavicle  0 -5.34481991e-014 2.981770104e-014
rhumerus  -41.38660049 -20.99670029 -69.39499664
rradius  3.326386194e-031 1.184904606e-031 19.60659981
rwrist  0 -7.062250077e-031 16.24570084
rhand  -0 -19.26210022 10.49419975
rfingers  -90 -7.125020027 -90
rthumb  -86.62882382 -25.42391172 -82.18720491
rfemur  -22.53300095 -1.459550023 18.2052002
rtibia  -0 0 28.09320068
rfoot  -0 -4.143640041 -7.08453989
rtoes  3.246912335 19.74533725 -99.53216764
lfemur  18.36619949 -3.867460012 -22.71710014
ltibia  -0 0 23.79249954
lfoot  4.469809269e-032 -9.07118988 -6.41629982
ltoes  -6.270873119 -19.02981862 -108.6244819
106
root  24.21755603 39.14822256 47.09155466 -4.693009853 6.543600082 1.683809996
lowerback  9.660790443 -1.543089986 -5.186270237
upperback  1.243890047 -2.478699923 2.691839933
thorax  -3.776370049 -1.142950058 6.063960075
lowerneck  -17.58519936 -5.159130096 -15.52490044
upperneck  28.1541996 -5.599359989 9.799980164
head  13.11699963 -2.891760111 5.576739788
lclavicle  0 -5.34481991e-014 2.981770104e-014
lhumerus  -35.4070015 7.866640091 78.71779633
lradius  -2.466028452e-031 -2.52735983e-031 45.70370102
lwrist  -1.412450015e-030 -0 6.357530117
lhand  -7.170967929e-031 -9.989629745 32.27130127
lfingers  90 7.125020027 -90
lthumb  94.70494903 15.96976588 73.34606468
rclavicle  0 -5.34481991e-014 2.981770104e-014
rhumerus  -41.66730118 -21.59900093 -68.88279724
rradius  3.333004946e-031 1.166156966e-031 19.2840004
rwrist  7.062250077e-031 -0 16.86619949
rhand  -0 -19.21960068 10.9467001
rfingers  -90 -7.125020027 -90
rthumb  -86.54037714 -25.87101173 -82.11195493
rfemur  -22.19860077 -1.792580009 18.51269913
rtibia  -0 0 28.51790047
rfoot  -4.421932741e-032 -3.4526999 -5.458059788
rtoes  3.832676384 19.6441059 -101.2701771
lfemur  17.94249916 -3.747940063 -22.54980087
ltibia  -0 0 25.7779007
lfoot  8.909735057e-032 -7.775710106 -6.588940144
ltoes  -6.466593756 -18.96636792 -109.2257013
